<svg width="128"
     height="128"
     viewBox="0 0 128 128"
     fill="none"
     xmlns="http://www.w3.org/2000/svg">
    <path d="M65.0726 6C23.6736 6 24.0001 43.7961 24.0001 44.3947C24.0001 60.8485 24.8629 81.8609 28.4385 98H29.6044H30.8481H98.1545H99.3982H100.564C104.14 81.8532 104.995 60.8485 104.995 44.4024C104.987 43.7961 106.472 6 65.0726 6Z"
          fill="#AB872F" />
    <path d="M114.389 119.889V123.959H13.6094V119.889C13.6094 107.499 25.7294 100.079 41.5294 96.6892C48.5394 95.1692 56.2794 94.4592 63.9994 94.4492H64.1194C71.7794 94.4492 79.4294 95.2392 86.3594 96.8192C102.249 100.419 114.389 108.139 114.389 119.889Z"
          fill="url(#paint0_linear_463_985)" />
    <path d="M72.8916 90.0801H55.1016V100.06C55.1016 104.57 58.7216 108.23 63.1916 108.23H64.8116C69.2716 108.23 72.9016 104.57 72.9016 100.06L72.8916 90.0801Z"
          fill="#EDC391" />
    <path d="M63.9986 16.6895C47.1586 16.6895 31.5586 27.6995 31.5586 54.8295C31.5586 76.6195 44.7686 89.4995 56.2686 93.6595C59.0086 94.6495 61.6586 95.1495 64.0086 95.1495C66.3386 95.1495 68.9686 94.6595 71.6986 93.6795C83.2086 89.5395 96.4486 76.6495 96.4486 54.8395C96.4386 27.6995 80.8386 16.6895 63.9986 16.6895Z"
          fill="#F9DDBD" />
    <path d="M29.8091 95.7871C30.2704 96.7328 30.7701 97.5092 31.2775 98.1627H36.7514C36.2056 90.6592 34.9217 72.2849 34.7371 62.5135C34.6833 59.5997 33.7992 48.8058 39.8881 47.445C62.2141 42.4247 74.8454 30.5852 74.8454 30.5852C78.1282 37.7581 88.3994 44.7542 92.0896 47.4142C95.1187 49.5976 94.6959 58.5926 94.6344 62.4212L91.8436 98.1627H97.7173C98.24 97.5092 98.7551 96.7328 99.2241 95.7871C102.184 89.7751 102.276 44.4697 102.276 44.4697C102.276 44.4697 103.291 8.95117 64.5205 8.95117C25.7499 8.95117 26.6109 44.4697 26.6109 44.4697C26.6109 44.4697 26.9415 89.8828 29.8091 95.7871Z"
          fill="#AB872F" />
    <path d="M65.0141 6C24.0678 6 24.3907 43.8634 24.3907 44.4631C24.3907 52.2126 24.5752 60.9615 25.1441 69.7489L31.8558 69.7335C31.8019 66.8198 33.8393 48.7991 39.9282 47.4306C62.2541 42.4104 74.8855 30.5709 74.8855 30.5709C78.1683 37.7438 88.4394 44.7398 92.1297 47.3999C95.1588 49.5833 96.3965 65.9203 96.335 69.7489H103.723C103.731 69.6951 103.739 69.6413 103.746 69.5951C104.3 60.8616 104.492 52.1588 104.492 44.4631C104.492 43.8634 105.96 6 65.0141 6Z"
          fill="url(#paint1_radial_463_985)" />
    <path d="M54.9884 49.8205C54.0784 48.5905 51.9784 46.8105 47.9084 46.8105C43.8384 46.8105 41.7284 48.6005 40.8284 49.8205C40.4284 50.3605 40.5284 50.9905 40.8084 51.3705C41.0684 51.7205 41.8284 52.0505 42.6684 51.7605C43.5084 51.4705 45.1584 50.6005 47.9084 50.5805C50.6584 50.6005 52.3084 51.4705 53.1484 51.7605C53.9884 52.0505 54.7584 51.7305 55.0084 51.3705C55.2984 50.9905 55.3884 50.3605 54.9884 49.8205Z"
          fill="#454140" />
    <path d="M87.1681 49.8205C86.2581 48.5905 84.1581 46.8105 80.0881 46.8105C76.0181 46.8105 73.9081 48.6005 73.0081 49.8205C72.6081 50.3605 72.7081 50.9905 72.9881 51.3705C73.2381 51.7205 74.0081 52.0505 74.8481 51.7605C75.6881 51.4705 77.3381 50.6005 80.0881 50.5805C82.8381 50.6005 84.4881 51.4705 85.3281 51.7605C86.1681 52.0505 86.9381 51.7305 87.1881 51.3705C87.4581 50.9905 87.5681 50.3605 87.1681 49.8205Z"
          fill="#454140" />
    <path d="M47.9106 63.9101C50.545 63.9101 52.6806 61.6536 52.6806 58.8701C52.6806 56.0866 50.545 53.8301 47.9106 53.8301C45.2762 53.8301 43.1406 56.0866 43.1406 58.8701C43.1406 61.6536 45.2762 63.9101 47.9106 63.9101Z"
          fill="#312D2D" />
    <path d="M80.0903 63.9101C82.7247 63.9101 84.8603 61.6536 84.8603 58.8701C84.8603 56.0866 82.7247 53.8301 80.0903 53.8301C77.4559 53.8301 75.3203 56.0866 75.3203 58.8701C75.3203 61.6536 77.4559 63.9101 80.0903 63.9101Z"
          fill="#312D2D" />
    <path d="M67.7388 68.0507C67.6388 68.0107 67.5288 67.9807 67.4288 67.9707H60.5888C60.4788 67.9807 60.3788 68.0107 60.2788 68.0507C59.6588 68.3107 59.3188 68.9607 59.6088 69.6607C59.8988 70.3607 61.2588 72.3207 64.0088 72.3207C66.7488 72.3207 68.1088 70.3607 68.4088 69.6607C68.6988 68.9707 68.3588 68.3107 67.7388 68.0507Z"
          fill="#DBA689" />
    <path d="M72.1416 76.1405C69.0616 78.0105 58.9617 78.0105 55.8817 76.1405C54.1117 75.0705 52.3117 76.7105 53.0417 78.3505C53.7617 79.9605 59.2817 83.7105 64.0417 83.7105C68.8117 83.7105 74.2417 79.9605 74.9717 78.3505C75.7017 76.7105 73.9116 75.0605 72.1416 76.1405Z"
          fill="#444444" />
    <defs>
        <linearGradient id="paint0_linear_463_985"
                        x1="63.9994"
                        y1="94.2406"
                        x2="63.9994"
                        y2="122"
                        gradientUnits="userSpaceOnUse">
            <stop stop-color="#651FFF" />
            <stop offset="0.7047"
                  stop-color="#5914F2" />
            <stop offset="1"
                  stop-color="#530EEB" />
        </linearGradient>
        <radialGradient id="paint1_radial_463_985"
                        cx="0"
                        cy="0"
                        r="1"
                        gradientUnits="userSpaceOnUse"
                        gradientTransform="translate(64.7785 65.5074) scale(49.7152 60.3294)">
            <stop offset="0.7945"
                  stop-color="#BFA055"
                  stop-opacity="0" />
            <stop offset="1"
                  stop-color="#BFA055" />
        </radialGradient>
    </defs>
</svg>